<svg width="24" height="24" viewBox="0 0 24 24" fill="none" xmlns="http://www.w3.org/2000/svg">
<path fill-rule="evenodd" clip-rule="evenodd" d="M19.5383 2.46155H4.46143C3.35686 2.46155 2.46143 3.35698 2.46143 4.46155V14.8411L8.34713 13.4678C9.24105 13.2592 10.156 13.1539 11.0739 13.1539H12.9264C13.8443 13.1539 14.7592 13.2592 15.6531 13.4678L21.5383 14.841V4.46155C21.5383 3.35698 20.6429 2.46155 19.5383 2.46155ZM4.46143 0.461548C2.25229 0.461548 0.461426 2.25241 0.461426 4.46155V19.5385C0.461426 20.2963 0.6722 21.005 1.03833 21.609V22.3846H1.61541V22.9615H2.39086C2.99487 23.3277 3.70353 23.5385 4.46143 23.5385H19.5383C20.2962 23.5385 21.0049 23.3277 21.6089 22.9615H22.3846V22.3846H22.9614V21.6091C23.3276 21.0051 23.5383 20.2964 23.5383 19.5385V4.46155C23.5383 2.25241 21.7475 0.461548 19.5383 0.461548H4.46143ZM6.75531 8.85316C7.91395 8.85316 8.85321 7.9139 8.85321 6.75526C8.85321 5.59662 7.91395 4.65736 6.75531 4.65736C5.59667 4.65736 4.65741 5.59662 4.65741 6.75526C4.65741 7.9139 5.59667 8.85316 6.75531 8.85316Z" fill="#DEB63D"/>
</svg>
